<svg width="227" height="227" viewBox="0 0 227 227" fill="none" xmlns="http://www.w3.org/2000/svg">
<circle cx="113.653" cy="113.421" r="110.538" stroke="white" stroke-width="5.24292"/>
<path d="M51.9299 137.528H45.5874L63.9317 87.5688H70.1765L88.5208 137.528H82.1784L67.2493 95.4725H66.859L51.9299 137.528ZM54.2717 118.013H79.8366V123.379H54.2717V118.013ZM98.3516 137.528H92.0091L110.353 87.5688H116.598L134.943 137.528H128.6L113.671 95.4725H113.281L98.3516 137.528ZM100.693 118.013H126.258V123.379H100.693V118.013ZM180.578 103.181H174.528C174.17 101.441 173.544 99.9122 172.65 98.5949C171.771 97.2777 170.698 96.1718 169.43 95.2773C168.177 94.3666 166.787 93.6836 165.258 93.2283C163.729 92.7729 162.136 92.5452 160.477 92.5452C157.452 92.5452 154.712 93.3096 152.256 94.8383C149.817 96.3669 147.873 98.6193 146.426 101.595C144.995 104.571 144.279 108.222 144.279 112.548C144.279 116.874 144.995 120.525 146.426 123.501C147.873 126.477 149.817 128.73 152.256 130.258C154.712 131.787 157.452 132.551 160.477 132.551C162.136 132.551 163.729 132.324 165.258 131.868C166.787 131.413 168.177 130.738 169.43 129.844C170.698 128.933 171.771 127.819 172.65 126.502C173.544 125.168 174.17 123.639 174.528 121.916H180.578C180.122 124.469 179.293 126.754 178.089 128.77C176.886 130.787 175.39 132.503 173.601 133.917C171.812 135.316 169.804 136.381 167.576 137.113C165.364 137.845 162.998 138.211 160.477 138.211C156.216 138.211 152.427 137.17 149.109 135.088C145.792 133.007 143.182 130.047 141.279 126.209C139.376 122.371 138.425 117.817 138.425 112.548C138.425 107.279 139.376 102.726 141.279 98.8877C143.182 95.0497 145.792 92.0899 149.109 90.0082C152.427 87.9266 156.216 86.8858 160.477 86.8858C162.998 86.8858 165.364 87.2517 167.576 87.9835C169.804 88.7154 171.812 89.7887 173.601 91.2036C175.39 92.6021 176.886 94.3097 178.089 96.3263C179.293 98.3266 180.122 100.611 180.578 103.181Z" fill="white"/>
</svg>
