<svg width="227" height="227" viewBox="0 0 227 227" fill="none" xmlns="http://www.w3.org/2000/svg">
<circle cx="113.389" cy="113.218" r="110.538" stroke="white" stroke-width="5.24292"/>
<path d="M75.2343 130.418C72.5911 130.418 70.155 130.004 67.9258 129.176C65.7285 128.316 63.8018 127.106 62.1459 125.545C60.5218 123.985 59.248 122.154 58.3245 120.052C57.4328 117.95 56.987 115.641 56.987 113.126C56.987 110.61 57.4328 108.301 58.3245 106.199C59.248 104.097 60.5377 102.266 62.1937 100.706C63.8496 99.1456 65.7922 97.9514 68.0213 97.1234C70.2505 96.2636 72.7026 95.8337 75.3776 95.8337C78.3392 95.8337 80.9983 96.3273 83.3548 97.3145C85.7432 98.3017 87.7495 99.7347 89.3736 101.614L84.4057 106.199C83.1956 104.925 81.874 103.986 80.441 103.381C79.0079 102.744 77.4475 102.426 75.7597 102.426C74.1356 102.426 72.6548 102.68 71.3173 103.19C69.9798 103.699 68.8175 104.432 67.8303 105.387C66.8749 106.343 66.1265 107.473 65.5852 108.779C65.0757 110.084 64.8209 111.533 64.8209 113.126C64.8209 114.686 65.0757 116.119 65.5852 117.425C66.1265 118.73 66.8749 119.877 67.8303 120.864C68.8175 121.819 69.9639 122.552 71.2696 123.061C72.6071 123.571 74.0719 123.826 75.6642 123.826C77.1928 123.826 78.6736 123.587 80.1066 123.109C81.5715 122.6 82.9886 121.756 84.3579 120.577L88.7526 126.166C86.9374 127.536 84.8197 128.586 82.3995 129.319C80.0111 130.051 77.6227 130.418 75.2343 130.418ZM81.6829 125.163V112.6H88.7526V126.166L81.6829 125.163ZM98.7002 130.227C97.4264 130.227 96.3278 129.797 95.4043 128.937C94.5126 128.045 94.0668 126.915 94.0668 125.545C94.0668 124.176 94.5126 123.077 95.4043 122.249C96.3278 121.389 97.4264 120.96 98.7002 120.96C100.006 120.96 101.105 121.389 101.996 122.249C102.888 123.077 103.334 124.176 103.334 125.545C103.334 126.915 102.888 128.045 101.996 128.937C101.105 129.797 100.006 130.227 98.7002 130.227ZM111.364 129.844L124.835 99.3685L126.841 102.712H108.833L112.272 99.0819V108.158H105.393V96.4069H132.191V101.422L119.771 129.844H111.364ZM141.261 129.844V99.2729L144.605 102.617H134.574V96.4069H149V129.844H141.261ZM159.967 129.844V99.2729L163.311 102.617H153.28V96.4069H167.706V129.844H159.967Z" fill="white"/>
</svg>
