<svg width="227" height="227" viewBox="0 0 227 227" fill="none" xmlns="http://www.w3.org/2000/svg">
<circle cx="113.524" cy="113.84" r="110.538" stroke="white" stroke-width="5.24292"/>
<path d="M88.1978 128.819C85.8937 128.819 83.7701 128.458 81.8269 127.736C79.9115 126.987 78.232 125.932 76.7885 124.572C75.3728 123.211 74.2624 121.615 73.4573 119.783C72.6801 117.951 72.2914 115.938 72.2914 113.745C72.2914 111.552 72.6801 109.54 73.4573 107.708C74.2624 105.875 75.3866 104.279 76.8302 102.919C78.2737 101.559 79.967 100.518 81.9102 99.796C83.8534 99.0465 85.9909 98.6717 88.3227 98.6717C90.9044 98.6717 93.2223 99.102 95.2766 99.9626C97.3585 100.823 99.1074 102.072 100.523 103.71L96.1926 107.708C95.1378 106.597 93.9857 105.778 92.7365 105.251C91.4873 104.696 90.1271 104.418 88.6558 104.418C87.2401 104.418 85.9493 104.64 84.7833 105.084C83.6174 105.528 82.6042 106.167 81.7436 107C80.9109 107.832 80.2585 108.818 79.7866 109.956C79.3424 111.094 79.1203 112.357 79.1203 113.745C79.1203 115.106 79.3424 116.355 79.7866 117.493C80.2585 118.631 80.9109 119.63 81.7436 120.491C82.6042 121.324 83.6036 121.962 84.7417 122.406C85.9076 122.851 87.1846 123.073 88.5726 123.073C89.905 123.073 91.1959 122.864 92.4451 122.448C93.722 122.004 94.9573 121.268 96.151 120.241L99.9818 125.113C98.3995 126.307 96.5535 127.223 94.4438 127.861C92.3618 128.5 90.2798 128.819 88.1978 128.819ZM93.8192 124.239V113.287H99.9818V125.113L93.8192 124.239ZM120.405 128.819C118.101 128.819 115.964 128.444 113.993 127.695C112.05 126.945 110.356 125.89 108.913 124.53C107.497 123.17 106.387 121.574 105.582 119.741C104.804 117.909 104.416 115.911 104.416 113.745C104.416 111.58 104.804 109.581 105.582 107.749C106.387 105.917 107.511 104.321 108.955 102.961C110.398 101.6 112.091 100.546 114.035 99.796C115.978 99.0465 118.088 98.6717 120.364 98.6717C122.668 98.6717 124.778 99.0465 126.693 99.796C128.636 100.546 130.316 101.6 131.731 102.961C133.175 104.321 134.299 105.917 135.104 107.749C135.909 109.554 136.312 111.552 136.312 113.745C136.312 115.911 135.909 117.923 135.104 119.783C134.299 121.615 133.175 123.211 131.731 124.572C130.316 125.904 128.636 126.945 126.693 127.695C124.778 128.444 122.682 128.819 120.405 128.819ZM120.364 123.073C121.669 123.073 122.862 122.851 123.945 122.406C125.055 121.962 126.027 121.324 126.86 120.491C127.692 119.658 128.331 118.673 128.775 117.535C129.247 116.396 129.483 115.133 129.483 113.745C129.483 112.357 129.247 111.094 128.775 109.956C128.331 108.818 127.692 107.832 126.86 107C126.055 106.167 125.097 105.528 123.986 105.084C122.876 104.64 121.669 104.418 120.364 104.418C119.059 104.418 117.852 104.64 116.741 105.084C115.659 105.528 114.701 106.167 113.868 107C113.035 107.832 112.383 108.818 111.911 109.956C111.467 111.094 111.245 112.357 111.245 113.745C111.245 115.106 111.467 116.369 111.911 117.535C112.383 118.673 113.021 119.658 113.826 120.491C114.659 121.324 115.631 121.962 116.741 122.406C117.852 122.851 119.059 123.073 120.364 123.073ZM141.381 128.319V99.1714H153.998C156.608 99.1714 158.856 99.6017 160.744 100.462C162.632 101.295 164.089 102.503 165.116 104.085C166.143 105.667 166.657 107.555 166.657 109.748C166.657 111.913 166.143 113.787 165.116 115.369C164.089 116.952 162.632 118.173 160.744 119.034C158.856 119.866 156.608 120.283 153.998 120.283H145.129L148.127 117.243V128.319H141.381ZM148.127 117.993L145.129 114.786H153.624C155.706 114.786 157.26 114.342 158.287 113.454C159.314 112.566 159.828 111.33 159.828 109.748C159.828 108.138 159.314 106.889 158.287 106C157.26 105.112 155.706 104.668 153.624 104.668H145.129L148.127 101.462V117.993Z" fill="white"/>
</svg>
