<svg width="227" height="228" viewBox="0 0 227 228" fill="none" xmlns="http://www.w3.org/2000/svg">
<path d="M70.6081 68.2723H78.3465V101.71H70.6081V68.2723ZM55.418 101.71H47.6796V68.2723H55.418V101.71ZM71.1814 88.0004H54.8448V81.4562H71.1814V88.0004ZM88.5506 102.092C87.2767 102.092 86.1781 101.662 85.2546 100.802C84.3629 99.9105 83.9171 98.78 83.9171 97.4107C83.9171 96.0413 84.3629 94.9427 85.2546 94.1147C86.1781 93.2549 87.2767 92.8249 88.5506 92.8249C89.8562 92.8249 90.9549 93.2549 91.8465 94.1147C92.7382 94.9427 93.184 96.0413 93.184 97.4107C93.184 98.78 92.7382 99.9105 91.8465 100.802C90.9549 101.662 89.8562 102.092 88.5506 102.092ZM96.8375 101.71V96.6941L109.735 84.5133C110.754 83.5898 111.502 82.7619 111.98 82.0294C112.458 81.297 112.776 80.6282 112.935 80.0232C113.126 79.4181 113.222 78.8608 113.222 78.3513C113.222 77.0138 112.76 75.9947 111.837 75.2941C110.945 74.5617 109.623 74.1955 107.872 74.1955C106.471 74.1955 105.165 74.4662 103.955 75.0075C102.777 75.5489 101.774 76.3928 100.946 77.5392L95.309 73.9089C96.5828 71.9982 98.3661 70.4855 100.659 69.3709C102.952 68.2564 105.595 67.6991 108.588 67.6991C111.072 67.6991 113.238 68.113 115.085 68.941C116.964 69.7372 118.413 70.8677 119.432 72.3325C120.483 73.7974 121.008 75.5489 121.008 77.587C121.008 78.6697 120.865 79.7525 120.578 80.8352C120.323 81.8861 119.782 83.0007 118.954 84.179C118.158 85.3572 116.98 86.6788 115.419 88.1437L104.719 98.2227L103.238 95.4044H122.107V101.71H96.8375ZM140.251 102.283C137.194 102.283 134.535 101.646 132.274 100.372C130.045 99.0985 128.325 97.2355 127.115 94.7834C125.905 92.3313 125.3 89.306 125.3 85.7075C125.3 81.8543 126.016 78.5901 127.449 75.9151C128.914 73.2401 130.92 71.202 133.468 69.8008C136.047 68.3997 139.009 67.6991 142.353 67.6991C144.136 67.6991 145.84 67.8901 147.464 68.2723C149.088 68.6544 150.489 69.2276 151.668 69.9919L148.801 75.6763C147.878 75.0394 146.891 74.6095 145.84 74.3866C144.789 74.1318 143.69 74.0044 142.544 74.0044C139.646 74.0044 137.353 74.8802 135.665 76.6316C133.978 78.3831 133.134 80.9785 133.134 84.4178C133.134 84.991 133.134 85.6279 133.134 86.3285C133.165 87.0291 133.261 87.7297 133.42 88.4303L131.271 86.4241C131.876 85.1821 132.656 84.1471 133.611 83.3191C134.567 82.4593 135.697 81.8224 137.003 81.4084C138.34 80.9626 139.805 80.7397 141.397 80.7397C143.563 80.7397 145.505 81.1696 147.225 82.0294C148.945 82.8892 150.314 84.0994 151.333 85.6598C152.384 87.2202 152.91 89.0513 152.91 91.1531C152.91 93.4141 152.336 95.3885 151.19 97.0763C150.075 98.7322 148.563 100.022 146.652 100.945C144.773 101.837 142.639 102.283 140.251 102.283ZM139.821 96.5031C140.904 96.5031 141.859 96.312 142.687 95.9299C143.547 95.5159 144.216 94.9267 144.693 94.1624C145.171 93.3982 145.41 92.5224 145.41 91.5352C145.41 90.0066 144.885 88.7965 143.834 87.9049C142.815 86.9813 141.445 86.5196 139.726 86.5196C138.579 86.5196 137.576 86.7425 136.716 87.1883C135.856 87.6023 135.172 88.1915 134.662 88.9557C134.185 89.6882 133.946 90.548 133.946 91.5352C133.946 92.4906 134.185 93.3504 134.662 94.1147C135.14 94.8471 135.809 95.4363 136.668 95.8821C137.528 96.2961 138.579 96.5031 139.821 96.5031ZM167.083 102.283C164.758 102.283 162.45 101.98 160.157 101.375C157.896 100.738 155.953 99.8468 154.329 98.7004L157.386 92.7772C158.66 93.7007 160.125 94.4331 161.781 94.9745C163.469 95.5159 165.172 95.7866 166.892 95.7866C168.835 95.7866 170.363 95.4044 171.478 94.6401C172.592 93.8758 173.15 92.809 173.15 91.4397C173.15 90.5799 172.927 89.8156 172.481 89.1468C172.035 88.4781 171.239 87.9685 170.092 87.6182C168.978 87.268 167.402 87.0928 165.363 87.0928H156.813L158.533 68.2723H178.93V74.4821H161.303L165.316 70.9473L164.122 84.37L160.109 80.8352H167.179C170.491 80.8352 173.15 81.297 175.156 82.2205C177.194 83.1122 178.675 84.3382 179.598 85.8986C180.522 87.459 180.984 89.2264 180.984 91.2008C180.984 93.1752 180.49 95.0063 179.503 96.6941C178.516 98.3501 176.987 99.7035 174.917 100.754C172.879 101.773 170.268 102.283 167.083 102.283Z" fill="white"/>
<path d="M84.6612 124.239H88.3359V149.962H84.6612V124.239ZM69.8887 149.962H66.214V124.239H69.8887V149.962ZM84.9919 138.497H69.5212V135.3H84.9919V138.497ZM99.3794 135.337H112.608V138.46H99.3794V135.337ZM99.7101 146.765H114.703V149.962H96.0354V124.239H114.189V127.436H99.7101V146.765ZM127.717 149.962L116.399 124.239H120.368L130.767 147.978H128.489L138.962 124.239H142.637L131.355 149.962H127.717ZM157.168 150.256C155.208 150.256 153.395 149.938 151.729 149.301C150.088 148.639 148.655 147.72 147.43 146.544C146.229 145.344 145.286 143.948 144.6 142.355C143.914 140.763 143.571 139.011 143.571 137.1C143.571 135.19 143.914 133.438 144.6 131.846C145.286 130.253 146.242 128.869 147.467 127.693C148.692 126.493 150.125 125.574 151.766 124.937C153.432 124.276 155.245 123.945 157.205 123.945C159.189 123.945 161.014 124.288 162.68 124.974C164.37 125.635 165.804 126.627 166.979 127.95L164.591 130.265C163.611 129.236 162.509 128.477 161.284 127.987C160.059 127.473 158.748 127.215 157.352 127.215C155.906 127.215 154.559 127.46 153.309 127.95C152.085 128.44 151.019 129.126 150.112 130.008C149.206 130.89 148.496 131.943 147.981 133.168C147.491 134.369 147.246 135.679 147.246 137.1C147.246 138.521 147.491 139.844 147.981 141.069C148.496 142.27 149.206 143.311 150.112 144.193C151.019 145.075 152.085 145.761 153.309 146.251C154.559 146.74 155.906 146.985 157.352 146.985C158.748 146.985 160.059 146.74 161.284 146.251C162.509 145.736 163.611 144.952 164.591 143.899L166.979 146.214C165.804 147.537 164.37 148.541 162.68 149.227C161.014 149.913 159.177 150.256 157.168 150.256Z" fill="white"/>
<circle cx="113.537" cy="113.975" r="110.538" stroke="white" stroke-width="5.24292"/>
</svg>
