<svg width="228" height="227" viewBox="0 0 228 227" fill="none" xmlns="http://www.w3.org/2000/svg">
<circle cx="114.123" cy="113.16" r="110.538" stroke="white" stroke-width="5.24292"/>
<path d="M68.9255 73.7299H76.6639V107.167H68.9255V73.7299ZM53.7353 107.167H45.997V73.7299H53.7353V107.167ZM69.4987 93.458H53.1621V86.9138H69.4987V93.458ZM86.8679 107.55C85.5941 107.55 84.4955 107.12 83.572 106.26C82.6803 105.368 82.2345 104.238 82.2345 102.868C82.2345 101.499 82.6803 100.4 83.572 99.5723C84.4955 98.7125 85.5941 98.2825 86.8679 98.2825C88.1736 98.2825 89.2723 98.7125 90.1639 99.5723C91.0556 100.4 91.5014 101.499 91.5014 102.868C91.5014 104.238 91.0556 105.368 90.1639 106.26C89.2723 107.12 88.1736 107.55 86.8679 107.55ZM95.1549 107.167V102.152L108.052 89.9709C109.071 89.0474 109.82 88.2195 110.297 87.487C110.775 86.7546 111.093 86.0858 111.253 85.4808C111.444 84.8757 111.539 84.3184 111.539 83.8089C111.539 82.4714 111.078 81.4523 110.154 80.7518C109.262 80.0193 107.941 79.6531 106.189 79.6531C104.788 79.6531 103.482 79.9238 102.272 80.4651C101.094 81.0065 100.091 81.8504 99.2629 82.9968L93.6263 79.3665C94.9002 77.4558 96.6835 75.9431 98.9763 74.8285C101.269 73.714 103.912 73.1567 106.906 73.1567C109.39 73.1567 111.555 73.5707 113.402 74.3986C115.281 75.1948 116.73 76.3253 117.749 77.7901C118.8 79.255 119.325 81.0065 119.325 83.0446C119.325 84.1273 119.182 85.2101 118.896 86.2928C118.641 87.3437 118.099 88.4583 117.271 89.6366C116.475 90.8148 115.297 92.1364 113.737 93.6013L103.037 103.68L101.556 100.862H120.424V107.167H95.1549ZM138.568 107.741C135.511 107.741 132.852 107.104 130.591 105.83C128.362 104.556 126.642 102.693 125.432 100.241C124.222 97.7889 123.617 94.7637 123.617 91.1651C123.617 87.3119 124.334 84.0477 125.767 81.3727C127.232 78.6977 129.238 76.6596 131.785 75.2584C134.365 73.8573 137.326 73.1567 140.67 73.1567C142.454 73.1567 144.157 73.3477 145.781 73.7299C147.405 74.112 148.807 74.6852 149.985 75.4495L147.119 81.1339C146.195 80.497 145.208 80.0671 144.157 79.8442C143.106 79.5894 142.008 79.462 140.861 79.462C137.963 79.462 135.67 80.3378 133.983 82.0892C132.295 83.8407 131.451 86.4361 131.451 89.8754C131.451 90.4486 131.451 91.0855 131.451 91.7861C131.483 92.4867 131.578 93.1873 131.738 93.8879L129.588 91.8817C130.193 90.6397 130.973 89.6047 131.929 88.7767C132.884 87.9169 134.015 87.28 135.32 86.866C136.658 86.4202 138.123 86.1973 139.715 86.1973C141.88 86.1973 143.823 86.6272 145.543 87.487C147.262 88.3468 148.632 89.557 149.651 91.1174C150.701 92.6778 151.227 94.5089 151.227 96.6107C151.227 98.8717 150.654 100.846 149.507 102.534C148.393 104.19 146.88 105.48 144.969 106.403C143.09 107.295 140.957 107.741 138.568 107.741ZM138.139 101.961C139.221 101.961 140.177 101.77 141.005 101.387C141.864 100.973 142.533 100.384 143.011 99.62C143.489 98.8558 143.727 97.98 143.727 96.9928C143.727 95.4642 143.202 94.2541 142.151 93.3625C141.132 92.4389 139.763 91.9772 138.043 91.9772C136.897 91.9772 135.893 92.2001 135.034 92.6459C134.174 93.0599 133.489 93.6491 132.98 94.4134C132.502 95.1458 132.263 96.0056 132.263 96.9928C132.263 97.9482 132.502 98.808 132.98 99.5723C133.457 100.305 134.126 100.894 134.986 101.34C135.846 101.754 136.897 101.961 138.139 101.961ZM153.65 100.145V94.9388L169.413 73.7299H177.534L162.105 94.9388L158.331 93.8401H184.651V100.145H153.65ZM171.658 107.167V100.145L171.897 93.8401V87.5826H179.205V107.167H171.658Z" fill="white"/>
<rect x="46.7192" y="117.41" width="140.606" height="46.8685" fill="white"/>
<path d="M60.3313 148.47V135.838H61.8111L67.4774 145.384H66.6834L72.2775 135.838H73.7573L73.7753 148.47H72.0429L72.0249 138.563H72.4399L67.4593 146.936H66.6292L61.6126 138.563H62.0637V148.47H60.3313ZM77.5663 148.47V135.838H82.4928C83.5996 135.838 84.5439 136.013 85.3259 136.362C86.1079 136.711 86.7094 137.216 87.1305 137.877C87.5515 138.539 87.7621 139.327 87.7621 140.241C87.7621 141.156 87.5515 141.944 87.1305 142.605C86.7094 143.255 86.1079 143.76 85.3259 144.121C84.5439 144.47 83.5996 144.645 82.4928 144.645H78.5588L79.3709 143.796V148.47H77.5663ZM79.3709 143.977L78.5588 143.075H82.4386C83.5935 143.075 84.4657 142.828 85.0552 142.335C85.6568 141.841 85.9575 141.144 85.9575 140.241C85.9575 139.339 85.6568 138.641 85.0552 138.148C84.4657 137.655 83.5935 137.408 82.4386 137.408H78.5588L79.3709 136.506V143.977ZM92.0554 141.288H98.5518V142.822H92.0554V141.288ZM92.2178 146.9H99.5804V148.47H90.4132V135.838H99.3278V137.408H92.2178V146.9ZM108.187 148.615C107.213 148.615 106.316 148.458 105.498 148.145C104.68 147.821 103.971 147.369 103.369 146.792C102.767 146.203 102.298 145.517 101.961 144.735C101.625 143.953 101.456 143.093 101.456 142.154C101.456 141.216 101.625 140.356 101.961 139.574C102.298 138.792 102.767 138.112 103.369 137.535C103.983 136.945 104.698 136.494 105.516 136.181C106.335 135.856 107.237 135.694 108.223 135.694C109.222 135.694 110.136 135.856 110.966 136.181C111.796 136.506 112.5 136.993 113.078 137.643L111.959 138.762C111.441 138.256 110.876 137.889 110.262 137.661C109.661 137.42 109.005 137.3 108.295 137.3C107.574 137.3 106.9 137.42 106.274 137.661C105.661 137.902 105.125 138.238 104.668 138.671C104.223 139.105 103.874 139.622 103.622 140.223C103.381 140.813 103.261 141.457 103.261 142.154C103.261 142.84 103.381 143.484 103.622 144.085C103.874 144.675 104.223 145.192 104.668 145.637C105.125 146.07 105.661 146.407 106.274 146.648C106.888 146.888 107.556 147.009 108.277 147.009C108.951 147.009 109.595 146.906 110.208 146.702C110.834 146.485 111.411 146.13 111.941 145.637L112.969 147.009C112.344 147.538 111.61 147.941 110.768 148.218C109.938 148.482 109.077 148.615 108.187 148.615ZM111.237 146.774V142.082H112.969V147.009L111.237 146.774ZM115.558 144.266V142.768H120.412V144.266H115.558ZM122.247 145.366V144.103L128.707 135.838H130.656L124.25 144.103L123.329 143.814H133.417V145.366H122.247ZM129.266 148.47V145.366L129.321 143.814V141.072H131.017V148.47H129.266ZM133.621 150.275L139.576 133.276H141.146L135.191 150.275H133.621ZM139.73 148.47L145.45 135.838H147.237L152.975 148.47H151.08L145.973 136.849H146.695L141.588 148.47H139.73ZM142.166 145.312L142.653 143.869H149.763L150.286 145.312H142.166ZM157.835 148.47L152.277 135.838H154.226L159.333 147.496H158.214L163.357 135.838H165.161L159.621 148.47H157.835ZM172.297 148.615C171.335 148.615 170.445 148.458 169.626 148.145C168.82 147.821 168.117 147.369 167.515 146.792C166.926 146.203 166.462 145.517 166.126 144.735C165.789 143.953 165.62 143.093 165.62 142.154C165.62 141.216 165.789 140.356 166.126 139.574C166.462 138.792 166.932 138.112 167.533 137.535C168.135 136.945 168.838 136.494 169.645 136.181C170.463 135.856 171.353 135.694 172.315 135.694C173.29 135.694 174.186 135.862 175.004 136.199C175.834 136.524 176.538 137.011 177.115 137.661L175.942 138.798C175.461 138.293 174.92 137.92 174.318 137.679C173.717 137.426 173.073 137.3 172.387 137.3C171.678 137.3 171.016 137.42 170.402 137.661C169.801 137.902 169.278 138.238 168.832 138.671C168.387 139.105 168.038 139.622 167.786 140.223C167.545 140.813 167.425 141.457 167.425 142.154C167.425 142.852 167.545 143.502 167.786 144.103C168.038 144.693 168.387 145.204 168.832 145.637C169.278 146.07 169.801 146.407 170.402 146.648C171.016 146.888 171.678 147.009 172.387 147.009C173.073 147.009 173.717 146.888 174.318 146.648C174.92 146.395 175.461 146.01 175.942 145.493L177.115 146.63C176.538 147.279 175.834 147.772 175.004 148.109C174.186 148.446 173.284 148.615 172.297 148.615Z" fill="black"/>
</svg>
