<svg width="227" height="227" viewBox="0 0 227 227" fill="none" xmlns="http://www.w3.org/2000/svg">
<circle cx="113.16" cy="113.16" r="110.538" stroke="white" stroke-width="5.24292"/>
<path d="M44.5722 89.2338H51.7928L68.771 130.704H69.3564L86.3346 89.2338H93.5553V139.193H87.8959V101.236H87.408L71.7958 139.193H66.3316L50.7194 101.236H50.2316V139.193H44.5722V89.2338ZM105.685 139.193V89.2338H122.566C126.485 89.2338 129.689 89.9412 132.177 91.356C134.681 92.7546 136.535 94.6492 137.739 97.0398C138.942 99.4305 139.544 102.098 139.544 105.041C139.544 107.985 138.942 110.66 137.739 113.067C136.552 115.474 134.714 117.393 132.226 118.824C129.738 120.239 126.55 120.946 122.663 120.946H110.564V115.579H122.468C125.152 115.579 127.306 115.116 128.933 114.189C130.559 113.262 131.738 112.01 132.47 110.432C133.218 108.838 133.592 107.041 133.592 105.041C133.592 103.041 133.218 101.252 132.47 99.6744C131.738 98.0969 130.551 96.861 128.908 95.9665C127.266 95.0558 125.086 94.6004 122.371 94.6004H111.735V139.193H105.685ZM165.292 139.876C162.072 139.876 159.201 139.323 156.681 138.217C154.176 137.111 152.184 135.574 150.704 133.606C149.241 131.622 148.444 129.321 148.314 126.703H154.461C154.591 128.313 155.144 129.703 156.12 130.874C157.095 132.029 158.372 132.923 159.95 133.558C161.527 134.192 163.275 134.509 165.194 134.509C167.341 134.509 169.244 134.135 170.902 133.387C172.561 132.639 173.862 131.598 174.805 130.264C175.749 128.931 176.22 127.386 176.22 125.63C176.22 123.792 175.765 122.174 174.854 120.775C173.944 119.36 172.61 118.254 170.854 117.458C169.097 116.661 166.951 116.262 164.414 116.262H160.413V110.896H164.414C166.398 110.896 168.138 110.538 169.634 109.822C171.146 109.107 172.325 108.098 173.171 106.797C174.033 105.496 174.464 103.968 174.464 102.211C174.464 100.52 174.09 99.0483 173.342 97.7961C172.594 96.5438 171.537 95.5681 170.171 94.8688C168.821 94.1695 167.227 93.8198 165.389 93.8198C163.666 93.8198 162.039 94.137 160.511 94.7712C158.998 95.3892 157.762 96.2918 156.803 97.4789C155.843 98.6498 155.323 100.065 155.242 101.723H149.387C149.485 99.1052 150.273 96.8122 151.753 94.8444C153.233 92.8603 155.168 91.3154 157.559 90.2095C159.966 89.1037 162.608 88.5507 165.487 88.5507C168.577 88.5507 171.228 89.1769 173.439 90.4291C175.651 91.665 177.351 93.2994 178.538 95.3323C179.725 97.3651 180.319 99.5606 180.319 101.919C180.319 104.732 179.579 107.131 178.099 109.115C176.635 111.099 174.643 112.473 172.122 113.237V113.628C175.277 114.148 177.741 115.49 179.514 117.653C181.286 119.799 182.172 122.458 182.172 125.63C182.172 128.345 181.433 130.785 179.953 132.948C178.489 135.094 176.489 136.786 173.952 138.022C171.415 139.258 168.528 139.876 165.292 139.876Z" fill="white"/>
</svg>
