<svg width="228" height="227" viewBox="0 0 228 227" fill="none" xmlns="http://www.w3.org/2000/svg">
<path d="M22.7693 122.818V104.083H25.6331L37.3827 118.509H35.9642V104.083H39.4168V122.818H36.553L24.8034 108.392H26.2219V122.818H22.7693ZM47.6487 111.871H56.9628V114.735H47.6487V111.871ZM47.9164 119.901H58.4883V122.818H44.437V104.083H58.1136V107H47.9164V119.901ZM62.3671 122.818V104.083H65.8465V119.874H75.6423V122.818H62.3671ZM78.3892 122.818V104.083H81.8686V119.874H91.6643V122.818H78.3892ZM97.0545 122.818V115.404L97.8306 117.545L89.6942 104.083H93.4145L99.945 114.922H97.8574L104.441 104.083H107.867L99.7309 117.545L100.534 115.404V122.818H97.0545ZM109.911 122.818V104.083H112.774L120.964 117.759H119.466L127.522 104.083H130.385L130.412 122.818H127.12L127.093 109.248H127.789L120.938 120.677H119.385L112.426 109.248H113.229V122.818H109.911ZM144.251 123.086C142.788 123.086 141.441 122.845 140.21 122.363C138.979 121.881 137.908 121.212 136.998 120.356C136.088 119.481 135.384 118.464 134.884 117.304C134.384 116.127 134.135 114.842 134.135 113.45C134.135 112.059 134.384 110.783 134.884 109.623C135.384 108.445 136.088 107.428 136.998 106.572C137.908 105.698 138.979 105.02 140.21 104.538C141.441 104.056 142.779 103.815 144.225 103.815C145.688 103.815 147.026 104.056 148.239 104.538C149.471 105.02 150.541 105.698 151.451 106.572C152.361 107.428 153.066 108.445 153.566 109.623C154.065 110.783 154.315 112.059 154.315 113.45C154.315 114.842 154.065 116.127 153.566 117.304C153.066 118.482 152.361 119.499 151.451 120.356C150.541 121.212 149.471 121.881 148.239 122.363C147.026 122.845 145.697 123.086 144.251 123.086ZM144.225 120.034C145.17 120.034 146.045 119.874 146.848 119.553C147.651 119.231 148.346 118.776 148.935 118.188C149.524 117.581 149.979 116.885 150.3 116.1C150.639 115.297 150.809 114.414 150.809 113.45C150.809 112.487 150.639 111.613 150.3 110.827C149.979 110.025 149.524 109.329 148.935 108.74C148.346 108.133 147.651 107.669 146.848 107.348C146.045 107.027 145.17 106.866 144.225 106.866C143.279 106.866 142.405 107.027 141.602 107.348C140.817 107.669 140.121 108.133 139.514 108.74C138.925 109.329 138.461 110.025 138.122 110.827C137.801 111.613 137.641 112.487 137.641 113.45C137.641 114.396 137.801 115.27 138.122 116.073C138.461 116.876 138.925 117.581 139.514 118.188C140.103 118.776 140.799 119.231 141.602 119.553C142.405 119.874 143.279 120.034 144.225 120.034ZM163.811 123.086C162.348 123.086 160.947 122.88 159.609 122.47C158.271 122.042 157.209 121.498 156.424 120.837L157.628 118.134C158.378 118.723 159.306 119.214 160.412 119.606C161.518 119.999 162.651 120.195 163.811 120.195C164.792 120.195 165.586 120.088 166.193 119.874C166.8 119.66 167.246 119.374 167.531 119.017C167.817 118.643 167.959 118.223 167.959 117.759C167.959 117.188 167.754 116.733 167.344 116.394C166.933 116.038 166.398 115.761 165.738 115.565C165.096 115.351 164.373 115.154 163.57 114.976C162.785 114.798 161.991 114.592 161.188 114.36C160.403 114.111 159.68 113.798 159.02 113.424C158.378 113.031 157.851 112.514 157.441 111.871C157.031 111.229 156.825 110.408 156.825 109.409C156.825 108.392 157.093 107.464 157.628 106.625C158.181 105.769 159.011 105.091 160.117 104.591C161.241 104.074 162.66 103.815 164.373 103.815C165.497 103.815 166.612 103.958 167.718 104.243C168.825 104.529 169.788 104.939 170.609 105.475L169.512 108.178C168.673 107.678 167.808 107.312 166.916 107.08C166.023 106.831 165.167 106.706 164.346 106.706C163.383 106.706 162.598 106.822 161.991 107.054C161.402 107.286 160.965 107.589 160.679 107.964C160.412 108.338 160.278 108.767 160.278 109.248C160.278 109.819 160.474 110.283 160.867 110.64C161.277 110.979 161.804 111.247 162.446 111.443C163.106 111.639 163.838 111.836 164.641 112.032C165.444 112.21 166.238 112.415 167.023 112.647C167.826 112.879 168.548 113.183 169.191 113.557C169.851 113.932 170.377 114.441 170.77 115.083C171.18 115.725 171.385 116.537 171.385 117.519C171.385 118.518 171.109 119.446 170.556 120.302C170.02 121.141 169.191 121.819 168.066 122.336C166.942 122.836 165.524 123.086 163.811 123.086ZM178.047 111.871H187.361V114.735H178.047V111.871ZM178.315 119.901H188.887V122.818H174.835V104.083H188.512V107H178.315V119.901ZM192.765 122.818V104.083H200.474C202.133 104.083 203.552 104.35 204.729 104.886C205.925 105.421 206.844 106.188 207.486 107.187C208.128 108.187 208.449 109.373 208.449 110.747C208.449 112.121 208.128 113.308 207.486 114.307C206.844 115.288 205.925 116.047 204.729 116.582C203.552 117.099 202.133 117.358 200.474 117.358H194.692L196.245 115.779V122.818H192.765ZM205.024 122.818L200.286 116.02H204.007L208.771 122.818H205.024ZM196.245 116.154L194.692 114.494H200.313C201.848 114.494 202.998 114.164 203.766 113.504C204.551 112.844 204.943 111.925 204.943 110.747C204.943 109.552 204.551 108.633 203.766 107.99C202.998 107.348 201.848 107.027 200.313 107.027H194.692L196.245 105.314V116.154Z" fill="white"/>
<circle cx="114.152" cy="113.672" r="110.538" stroke="white" stroke-width="5.24292"/>
</svg>
