<svg width="228" height="227" viewBox="0 0 228 227" fill="none" xmlns="http://www.w3.org/2000/svg">
<circle cx="113.885" cy="113.838" r="110.538" stroke="white" stroke-width="5.24292"/>
<path d="M69.3812 128.816C67.0771 128.816 64.9396 128.442 62.9687 127.692C61.0255 126.943 59.3321 125.888 57.8886 124.527C56.4729 123.167 55.3625 121.571 54.5574 119.739C53.7802 117.907 53.3915 115.908 53.3915 113.743C53.3915 111.577 53.7802 109.579 54.5574 107.747C55.3625 105.914 56.4867 104.318 57.9303 102.958C59.3738 101.598 61.0671 100.543 63.0103 99.7934C64.9535 99.0439 67.0632 98.6692 69.3395 98.6692C71.6436 98.6692 73.7534 99.0439 75.6688 99.7934C77.612 100.543 79.2914 101.598 80.7072 102.958C82.1507 104.318 83.275 105.914 84.08 107.747C84.885 109.551 85.2876 111.55 85.2876 113.743C85.2876 115.908 84.885 117.921 84.08 119.781C83.275 121.613 82.1507 123.209 80.7072 124.569C79.2914 125.902 77.612 126.943 75.6688 127.692C73.7534 128.442 71.6575 128.816 69.3812 128.816ZM69.3395 123.07C70.6443 123.07 71.8379 122.848 72.9206 122.404C74.031 121.96 75.0025 121.321 75.8353 120.488C76.6681 119.656 77.3066 118.67 77.7508 117.532C78.2227 116.394 78.4586 115.131 78.4586 113.743C78.4586 112.355 78.2227 111.092 77.7508 109.954C77.3066 108.815 76.6681 107.83 75.8353 106.997C75.0303 106.164 74.0726 105.526 72.9622 105.082C71.8518 104.638 70.6443 104.415 69.3395 104.415C68.0348 104.415 66.8273 104.638 65.7169 105.082C64.6343 105.526 63.6765 106.164 62.8437 106.997C62.011 107.83 61.3586 108.815 60.8867 109.954C60.4425 111.092 60.2204 112.355 60.2204 113.743C60.2204 115.103 60.4425 116.366 60.8867 117.532C61.3586 118.67 61.9971 119.656 62.8021 120.488C63.6349 121.321 64.6065 121.96 65.7169 122.404C66.8273 122.848 68.0348 123.07 69.3395 123.07ZM90.3572 128.317V99.1688H102.974C105.583 99.1688 107.832 99.5991 109.72 100.46C111.607 101.292 113.065 102.5 114.092 104.082C115.119 105.665 115.633 107.552 115.633 109.745C115.633 111.911 115.119 113.784 114.092 115.367C113.065 116.949 111.607 118.17 109.72 119.031C107.832 119.864 105.583 120.28 102.974 120.28H94.1048L97.1028 117.24V128.317H90.3572ZM97.1028 117.99L94.1048 114.784H102.599C104.681 114.784 106.236 114.34 107.263 113.451C108.29 112.563 108.804 111.328 108.804 109.745C108.804 108.135 108.29 106.886 107.263 105.998C106.236 105.109 104.681 104.665 102.599 104.665H94.1048L97.1028 101.459V117.99ZM133.236 128.816C129.099 128.816 125.865 127.664 123.534 125.36C121.202 123.056 120.036 119.767 120.036 115.492V99.1688H126.782V115.242C126.782 118.018 127.351 120.016 128.489 121.238C129.627 122.459 131.223 123.07 133.277 123.07C135.332 123.07 136.928 122.459 138.066 121.238C139.204 120.016 139.773 118.018 139.773 115.242V99.1688H146.435V115.492C146.435 119.767 145.27 123.056 142.938 125.36C140.606 127.664 137.372 128.816 133.236 128.816ZM162.679 128.816C160.347 128.816 158.112 128.511 155.975 127.9C153.837 127.262 152.116 126.443 150.811 125.444L153.101 120.363C154.351 121.252 155.822 121.987 157.515 122.57C159.236 123.126 160.971 123.403 162.72 123.403C164.053 123.403 165.121 123.278 165.926 123.028C166.759 122.751 167.37 122.376 167.759 121.904C168.147 121.432 168.342 120.891 168.342 120.28C168.342 119.503 168.036 118.892 167.425 118.448C166.815 117.976 166.01 117.601 165.01 117.324C164.011 117.018 162.901 116.741 161.679 116.491C160.486 116.213 159.278 115.88 158.057 115.492C156.863 115.103 155.766 114.603 154.767 113.993C153.768 113.382 152.949 112.577 152.31 111.577C151.7 110.578 151.394 109.301 151.394 107.747C151.394 106.081 151.838 104.568 152.727 103.208C153.643 101.82 155.003 100.723 156.807 99.9184C158.64 99.0856 160.93 98.6692 163.678 98.6692C165.51 98.6692 167.314 98.8912 169.091 99.3354C170.868 99.7518 172.436 100.39 173.796 101.251L171.714 106.373C170.354 105.595 168.994 105.026 167.634 104.665C166.273 104.277 164.941 104.082 163.636 104.082C162.332 104.082 161.263 104.235 160.43 104.54C159.597 104.846 159 105.248 158.64 105.748C158.279 106.22 158.098 106.775 158.098 107.414C158.098 108.163 158.404 108.774 159.014 109.246C159.625 109.69 160.43 110.051 161.429 110.328C162.429 110.606 163.525 110.883 164.719 111.161C165.94 111.439 167.148 111.758 168.342 112.119C169.563 112.48 170.673 112.965 171.673 113.576C172.672 114.187 173.477 114.992 174.088 115.991C174.726 116.991 175.046 118.254 175.046 119.781C175.046 121.418 174.588 122.917 173.671 124.278C172.755 125.638 171.381 126.734 169.549 127.567C167.745 128.4 165.455 128.816 162.679 128.816Z" fill="white"/>
</svg>
