<svg width="228" height="227" viewBox="0 0 228 227" fill="none" xmlns="http://www.w3.org/2000/svg">
<circle cx="114.012" cy="113.223" r="110.538" stroke="white" stroke-width="5.24292"/>
<path d="M41.9458 132.274C39.2265 132.274 36.6118 131.838 34.1017 130.967C31.6265 130.06 29.709 128.91 28.3494 127.515L29.8659 124.535C31.1558 125.79 32.8815 126.853 35.043 127.725C37.2393 128.561 39.5402 128.98 41.9458 128.98C44.2467 128.98 46.1118 128.701 47.5412 128.143C49.0054 127.55 50.0687 126.766 50.7311 125.79C51.4283 124.814 51.777 123.733 51.777 122.548C51.777 121.118 51.3586 119.968 50.5219 119.096C49.7201 118.225 48.6568 117.545 47.332 117.057C46.0072 116.534 44.543 116.081 42.9393 115.697C41.3357 115.314 39.732 114.913 38.1283 114.494C36.5246 114.041 35.043 113.448 33.6834 112.716C32.3586 111.984 31.2778 111.026 30.4411 109.84C29.6393 108.62 29.2384 107.034 29.2384 105.082C29.2384 103.269 29.709 101.613 30.6503 100.114C31.6265 98.5797 33.1081 97.3595 35.0953 96.4531C37.0824 95.5118 39.6274 95.0411 42.7302 95.0411C44.787 95.0411 46.8265 95.3375 48.8485 95.9301C50.8705 96.4879 52.6137 97.2723 54.0779 98.2833L52.7705 101.369C51.2017 100.323 49.5283 99.5558 47.7503 99.0677C46.0072 98.5797 44.3164 98.3356 42.6779 98.3356C40.4815 98.3356 38.6687 98.632 37.2393 99.2246C35.81 99.8173 34.7467 100.619 34.0494 101.63C33.387 102.606 33.0558 103.722 33.0558 104.977C33.0558 106.406 33.4567 107.557 34.2586 108.428C35.0953 109.3 36.176 109.98 37.5008 110.468C38.8604 110.956 40.3421 111.392 41.9458 111.775C43.5494 112.159 45.1357 112.577 46.7045 113.03C48.3081 113.483 49.7724 114.076 51.0971 114.808C52.4568 115.505 53.5375 116.447 54.3393 117.632C55.176 118.817 55.5944 120.369 55.5944 122.286C55.5944 124.064 55.1063 125.72 54.1302 127.254C53.154 128.753 51.6549 129.973 49.6329 130.915C47.6458 131.821 45.0834 132.274 41.9458 132.274ZM64.0259 131.96V95.3549H77.7269C80.8296 95.3549 83.4966 95.8604 85.7278 96.8714C87.959 97.8476 89.6672 99.2769 90.8526 101.159C92.0728 103.007 92.6828 105.256 92.6828 107.905C92.6828 110.485 92.0728 112.716 90.8526 114.599C89.6672 116.447 87.959 117.876 85.7278 118.887C83.4966 119.898 80.8296 120.404 77.7269 120.404H66.17L67.8957 118.573V131.96H64.0259ZM67.8957 118.887L66.17 117.004H77.6223C81.2828 117.004 84.0544 116.22 85.937 114.651C87.8544 113.048 88.8131 110.799 88.8131 107.905C88.8131 104.977 87.8544 102.711 85.937 101.107C84.0544 99.5035 81.2828 98.7017 77.6223 98.7017H66.17L67.8957 96.8714V118.887ZM104.502 111.723H123.85V115.017H104.502V111.723ZM104.92 128.614H126.936V131.96H101.05V95.3549H126.151V98.7017H104.92V128.614ZM139.483 111.723H158.832V115.017H139.483V111.723ZM139.902 128.614H161.917V131.96H136.032V95.3549H161.133V98.7017H139.902V128.614ZM165.481 131.96L180.49 111.671V114.651L166.37 95.3549H170.815L182.686 111.461L180.96 111.514L192.831 95.3549H197.014L183.052 114.39V111.671L198.008 131.96H193.511L180.856 114.756H182.477L169.926 131.96H165.481Z" fill="white"/>
</svg>
