<svg width="227" height="227" viewBox="0 0 227 227" fill="none" xmlns="http://www.w3.org/2000/svg">
<circle cx="113.205" cy="113.218" r="110.538" stroke="white" stroke-width="5.24292"/>
<path d="M67.619 129.325L49.5866 87.5277H60.0359L75.7992 124.548H69.6491L85.6514 87.5277H95.2646L77.1726 129.325H67.619ZM98.7544 129.325V87.5277H116.846C120.588 87.5277 123.813 88.1447 126.519 89.3787C129.226 90.5729 131.316 92.3045 132.789 94.5735C134.262 96.8425 134.998 99.5493 134.998 102.694C134.998 105.799 134.262 108.486 132.789 110.755C131.316 113.024 129.226 114.775 126.519 116.009C123.813 117.203 120.588 117.801 116.846 117.801H104.128L108.427 113.442V129.325H98.7544ZM108.427 114.517L104.128 109.919H116.309C119.295 109.919 121.524 109.282 122.997 108.008C124.469 106.734 125.206 104.963 125.206 102.694C125.206 100.385 124.469 98.5939 122.997 97.3201C121.524 96.0463 119.295 95.4094 116.309 95.4094H104.128L108.427 90.8118V114.517ZM156.709 130.041C153.206 130.041 150.141 129.524 147.514 128.489C144.887 127.414 142.837 125.921 141.364 124.01C139.891 122.06 139.155 119.791 139.155 117.203C139.155 114.616 139.871 112.427 141.304 110.635C142.777 108.804 144.827 107.431 147.454 106.515C150.081 105.56 153.166 105.082 156.709 105.082C160.292 105.082 163.397 105.56 166.024 106.515C168.691 107.431 170.741 108.804 172.174 110.635C173.647 112.427 174.383 114.616 174.383 117.203C174.383 119.791 173.647 122.06 172.174 124.01C170.701 125.921 168.631 127.414 165.964 128.489C163.337 129.524 160.252 130.041 156.709 130.041ZM156.709 122.936C159.137 122.936 161.048 122.398 162.441 121.323C163.874 120.249 164.591 118.776 164.591 116.905C164.591 115.034 163.874 113.581 162.441 112.546C161.048 111.471 159.137 110.934 156.709 110.934C154.321 110.934 152.43 111.471 151.037 112.546C149.644 113.581 148.947 115.034 148.947 116.905C148.947 118.776 149.644 120.249 151.037 121.323C152.43 122.398 154.321 122.936 156.709 122.936ZM156.709 109.979C153.485 109.979 150.659 109.541 148.23 108.665C145.842 107.789 143.971 106.515 142.618 104.844C141.304 103.132 140.647 101.102 140.647 98.7532C140.647 96.2852 141.324 94.1754 142.677 92.4239C144.031 90.6326 145.922 89.2593 148.35 88.304C150.778 87.3088 153.565 86.8112 156.709 86.8112C159.934 86.8112 162.74 87.3088 165.128 88.304C167.557 89.2593 169.447 90.6326 170.801 92.4239C172.194 94.1754 172.891 96.2852 172.891 98.7532C172.891 101.102 172.214 103.132 170.86 104.844C169.547 106.515 167.676 107.789 165.248 108.665C162.82 109.541 159.973 109.979 156.709 109.979ZM156.709 104.306C158.739 104.306 160.332 103.848 161.486 102.933C162.68 102.017 163.277 100.763 163.277 99.1711C163.277 97.4993 162.66 96.2055 161.426 95.29C160.232 94.3744 158.66 93.9167 156.709 93.9167C154.799 93.9167 153.246 94.3744 152.052 95.29C150.858 96.2055 150.261 97.4993 150.261 99.1711C150.261 100.763 150.838 102.017 151.992 102.933C153.147 103.848 154.719 104.306 156.709 104.306Z" fill="white"/>
</svg>
