<svg width="227" height="227" viewBox="0 0 227 227" fill="none" xmlns="http://www.w3.org/2000/svg">
<circle cx="113.502" cy="113.215" r="110.538" stroke="white" stroke-width="5.24292"/>
<path d="M67.9173 138.953L49.885 97.1557H60.3342L76.0976 134.176H69.9475L85.9497 97.1557H95.563L77.4709 138.953H67.9173ZM99.0527 138.953V97.1557H117.145C120.887 97.1557 124.111 97.7727 126.818 99.0067C129.525 100.201 131.614 101.932 133.087 104.201C134.56 106.47 135.297 109.177 135.297 112.322C135.297 115.427 134.56 118.114 133.087 120.383C131.614 122.652 129.525 124.403 126.818 125.637C124.111 126.831 120.887 127.429 117.145 127.429H104.427L108.726 123.07V138.953H99.0527ZM108.726 124.144L104.427 119.547H116.607C119.593 119.547 121.822 118.91 123.295 117.636C124.768 116.362 125.504 114.591 125.504 112.322C125.504 110.013 124.768 108.222 123.295 106.948C121.822 105.674 119.593 105.037 116.607 105.037H104.427L108.726 100.44V124.144ZM154.847 96.4391C158.708 96.4391 162.032 97.2353 164.818 98.8275C167.605 100.42 169.754 102.748 171.267 105.814C172.78 108.839 173.536 112.62 173.536 117.158C173.536 121.975 172.62 126.055 170.789 129.399C168.998 132.743 166.51 135.29 163.326 137.042C160.141 138.793 156.439 139.669 152.22 139.669C150.03 139.669 147.921 139.43 145.89 138.953C143.86 138.475 142.109 137.758 140.636 136.803L144.219 129.697C145.373 130.494 146.607 131.051 147.921 131.369C149.234 131.648 150.607 131.787 152.041 131.787C155.623 131.787 158.469 130.693 160.579 128.503C162.729 126.314 163.803 123.07 163.803 118.771C163.803 118.054 163.783 117.258 163.744 116.382C163.704 115.506 163.604 114.631 163.445 113.755L166.072 116.263C165.396 117.815 164.44 119.129 163.206 120.204C161.972 121.239 160.539 122.035 158.907 122.592C157.275 123.11 155.444 123.368 153.414 123.368C150.747 123.368 148.319 122.831 146.129 121.756C143.98 120.681 142.248 119.169 140.934 117.218C139.661 115.268 139.024 112.979 139.024 110.352C139.024 107.485 139.72 105.017 141.114 102.948C142.547 100.878 144.457 99.2853 146.846 98.1707C149.274 97.0163 151.941 96.4391 154.847 96.4391ZM155.444 103.664C154.051 103.664 152.837 103.923 151.802 104.44C150.767 104.918 149.951 105.634 149.354 106.59C148.756 107.505 148.458 108.6 148.458 109.874C148.458 111.785 149.095 113.317 150.369 114.471C151.682 115.586 153.414 116.143 155.563 116.143C156.957 116.143 158.191 115.885 159.265 115.367C160.38 114.81 161.236 114.054 161.833 113.098C162.43 112.143 162.729 111.068 162.729 109.874C162.729 108.68 162.43 107.625 161.833 106.709C161.276 105.754 160.46 105.017 159.385 104.5C158.31 103.943 156.996 103.664 155.444 103.664Z" fill="white"/>
</svg>
