<svg width="177" height="177" viewBox="0 0 177 177" fill="none" xmlns="http://www.w3.org/2000/svg">
<path d="M177 88.5C177 137.377 137.377 177 88.5 177C39.6228 177 0 137.377 0 88.5C0 39.6228 39.6228 0 88.5 0C137.377 0 177 39.6228 177 88.5Z" fill="white"/>
<path fill-rule="evenodd" clip-rule="evenodd" d="M110.085 104.186L90.2085 124.084C88.9888 125.305 87.0112 125.305 85.7915 124.084L65.9148 104.186C64.6951 102.965 64.6951 100.985 65.9148 99.7637C67.1345 98.5426 69.1121 98.5426 70.3318 99.7637L84.8767 114.325L84.8767 51L91.1233 51L91.1233 114.325L105.668 99.7637C106.888 98.5426 108.865 98.5426 110.085 99.7637C111.305 100.985 111.305 102.965 110.085 104.186Z" fill="black"/>
</svg>
