<svg width="28" height="31" viewBox="0 0 28 31" fill="none" xmlns="http://www.w3.org/2000/svg">
<path d="M1.82623 0.950195H25.7782C26.5901 0.950195 27.3214 1.75541 27.3214 2.6493V29.0197C27.3214 29.9136 26.5901 30.7188 25.7782 30.7188H1.82623C1.01433 30.7188 0.282959 29.9136 0.282959 29.0197V2.6493C0.282959 1.75541 1.01433 0.950195 1.82623 0.950195ZM19.4843 17.6652H23.219L23.3814 13.7321H19.4843V10.8273C19.4843 9.71029 19.6869 9.08386 20.986 9.08386H23.2593L23.3411 5.4182C23.3411 5.4182 22.3266 5.23943 20.8651 5.23943C17.2927 5.23943 15.7092 7.69797 15.7092 10.3353V13.7321H13.0708V17.6652H15.7092V28.5706H19.4843V17.6652Z" fill="#B1B1B1"/>
</svg>
