<svg width="28" height="28" viewBox="0 0 28 28" fill="none" xmlns="http://www.w3.org/2000/svg">
<g clip-path="url(#clip0_145_42)">
<path fill-rule="evenodd" clip-rule="evenodd" d="M7.88258 3.40257C5.09659 3.40257 2.81016 5.689 2.81016 8.47499V20.2965C2.81016 23.0825 5.09659 25.3689 7.88258 25.3689H19.7041C22.4901 25.3689 24.7765 23.0825 24.7765 20.2965V8.47499C24.7765 5.689 22.4901 3.40257 19.7041 3.40257H7.88258ZM-0.555298 8.47499C-0.555298 3.83031 3.2379 0.0371094 7.88258 0.0371094H19.7041C24.3488 0.0371094 28.142 3.83031 28.142 8.47499V20.2965C28.142 24.9412 24.3488 28.7344 19.7041 28.7344H7.88258C3.2379 28.7344 -0.555298 24.9412 -0.555298 20.2965V8.47499Z" fill="#B1B1B1"/>
<path fill-rule="evenodd" clip-rule="evenodd" d="M13.7934 10.1575C11.4584 10.1575 9.56541 12.0504 9.56541 14.3855C9.56541 16.7206 11.4584 18.6135 13.7934 18.6135C16.1285 18.6135 18.0215 16.7206 18.0215 14.3855C18.0215 12.0504 16.1285 10.1575 13.7934 10.1575ZM6.19995 14.3855C6.19995 10.1917 9.59967 6.79199 13.7934 6.79199C17.9872 6.79199 21.3869 10.1917 21.3869 14.3855C21.3869 18.5792 17.9872 21.979 13.7934 21.979C9.59967 21.979 6.19995 18.5792 6.19995 14.3855Z" fill="#B1B1B1"/>
<path fill-rule="evenodd" clip-rule="evenodd" d="M20.5485 7.62522C21.0115 7.62522 21.3868 7.24989 21.3868 6.78689C21.3868 6.32389 21.0115 5.94855 20.5485 5.94855C20.0855 5.94855 19.7102 6.32389 19.7102 6.78689C19.7102 7.24989 20.0855 7.62522 20.5485 7.62522ZM18.0214 6.78689C18.0214 5.3912 19.1528 4.25977 20.5485 4.25977C21.9442 4.25977 23.0756 5.3912 23.0756 6.78689C23.0756 8.18258 21.9442 9.31401 20.5485 9.31401C19.1528 9.31401 18.0214 8.18258 18.0214 6.78689Z" fill="#B1B1B1"/>
</g>
<defs>
<clipPath id="clip0_145_42">
<rect width="27.0206" height="27.0206" fill="white" transform="translate(0.282959 0.875)"/>
</clipPath>
</defs>
</svg>
