<svg width="28" height="28" viewBox="0 0 28 28" fill="none" xmlns="http://www.w3.org/2000/svg">
<g clip-path="url(#clip0_145_49)">
<path d="M14.6219 12.7371C14.632 12.7245 14.6413 12.711 14.6481 12.6966V12.7371H14.6219ZM27.032 0.607422V27.628H0.0113525V0.607422H27.032ZM8.39196 10.9808H4.36251V23.1012H8.39196V10.9808ZM8.65541 7.23338C8.63008 6.04279 7.78146 5.13759 6.40257 5.13759C5.02536 5.13759 4.12439 6.04279 4.12439 7.23338C4.12439 8.39442 4.99834 9.32663 6.35022 9.32663H6.37639C7.78146 9.32663 8.65541 8.39442 8.65541 7.23338ZM22.9189 16.151C22.9189 12.4289 20.9304 10.6971 18.2798 10.6971C16.1427 10.6971 15.186 11.8716 14.6481 12.6966V10.9808H10.6203C10.6718 12.1174 10.6203 23.1012 10.6203 23.1012H14.6481V16.3326C14.6481 15.9661 14.6743 15.6106 14.7806 15.3497C15.0728 14.6286 15.7365 13.8754 16.8477 13.8754C18.3077 13.8754 18.8895 14.9849 18.8895 16.6163V23.1012H22.9181L22.9189 16.151Z" fill="#B1B1B1"/>
</g>
<defs>
<clipPath id="clip0_145_49">
<rect width="27.0206" height="27.0206" fill="white" transform="translate(0.0113525 0.607422)"/>
</clipPath>
</defs>
</svg>
