<svg width="28" height="28" viewBox="0 0 28 28" fill="none" xmlns="http://www.w3.org/2000/svg">
<g clip-path="url(#clip0_145_47)">
<path fill-rule="evenodd" clip-rule="evenodd" d="M11.6232 9.32578C11.9646 5.61092 15.049 2.74512 18.8597 2.74512C20.7828 2.74512 22.5885 3.48784 23.8747 4.76079C24.5096 4.53505 25.0908 4.20886 25.7306 3.80168C26.2453 3.47419 26.9152 3.5303 27.3681 3.93883C27.8211 4.34736 27.9458 5.00792 27.673 5.5535L26.684 7.53154L27.7328 7.88112C28.2421 8.0509 28.6035 8.50497 28.6546 9.0394C28.7057 9.57384 28.4369 10.0882 27.969 10.3514L25.9288 11.499C25.4673 18.8591 19.8496 27.0758 9.82468 27.0758C6.60344 27.0758 3.6391 26.1532 1.1346 24.4835C0.595462 24.1241 0.385628 23.4337 0.633593 22.835C0.881558 22.2364 1.51814 21.8966 2.15352 22.0236C2.4226 22.0775 2.71074 22.0817 3.15397 22.0817C4.22622 22.0817 5.28078 21.8804 6.2632 21.5093C4.94807 20.6751 3.95411 19.3832 3.46579 17.8572C3.35907 17.5237 3.38677 17.1677 3.53279 16.8607C2.35237 15.6526 1.628 13.9837 1.628 12.1239V12.0395C1.628 11.5863 1.85397 11.1658 2.2253 10.915C1.89631 10.122 1.71244 9.24708 1.71244 8.32417C1.71244 7.08611 2.02173 5.92966 2.55874 4.96305C2.77883 4.56688 3.18217 4.30672 3.63386 4.26959C4.08554 4.23246 4.52595 4.42325 4.80779 4.77816C6.5383 6.95733 8.91372 8.54894 11.6232 9.32578ZM4.80718 14.046C5.34195 15.0641 6.29119 15.7931 7.40697 16.0322C8.03609 16.167 8.48408 16.7251 8.47967 17.3685C8.47526 18.0119 8.01967 18.5637 7.38876 18.6899C7.30312 18.707 7.21012 18.7251 7.11164 18.7429C7.77469 19.3772 8.64963 19.7668 9.62159 19.8028C10.1869 19.8237 10.6799 20.1931 10.8588 20.7298C11.0377 21.2665 10.8649 21.8578 10.4252 22.2137C9.43982 23.0115 8.31676 23.6481 7.11125 24.0896C7.98164 24.2687 8.88801 24.3616 9.82468 24.3616C18.3519 24.3616 23.1667 17.1394 23.2446 10.6721C23.2504 10.1877 23.514 9.74317 23.9362 9.50567L24.023 9.45687C23.799 9.30902 23.6214 9.09641 23.5167 8.8435C23.3661 8.48004 23.3807 8.06914 23.5566 7.71726L23.5935 7.64352C23.1114 7.70599 22.6288 7.50532 22.3337 7.11188C21.5898 6.11997 20.3124 5.45929 18.8597 5.45929C16.3161 5.45929 14.306 7.46932 14.306 10.013C14.306 10.3759 14.3125 10.5472 14.3499 10.6971C14.4605 11.1391 14.3417 11.6072 14.0339 11.9431C13.726 12.279 13.2702 12.4381 12.8202 12.3665C9.63647 11.86 6.73317 10.4424 4.42663 8.33528C4.43031 9.72673 5.12593 10.9145 6.11822 11.5967C6.60806 11.9335 6.82172 12.5499 6.6454 13.1175C6.46908 13.6852 5.94383 14.0721 5.34939 14.0721C5.16808 14.0721 4.98706 14.0633 4.80718 14.046Z" fill="#B1B1B1"/>
</g>
<defs>
<clipPath id="clip0_145_47">
<rect width="27.0206" height="27.0206" fill="white" transform="translate(0.282959 0.724609)"/>
</clipPath>
</defs>
</svg>
