<svg width="386" height="386" viewBox="0 0 386 386" fill="none" xmlns="http://www.w3.org/2000/svg">
<circle cx="193" cy="193" r="193" fill="#7EAFFF"/>
<path d="M131.041 240.562C126.844 240.562 122.906 240.175 119.227 239.4C115.547 238.69 112.287 237.496 109.446 235.817C106.67 234.139 104.475 231.944 102.861 229.233C101.247 226.457 100.441 223.067 100.441 219.065C100.441 218.807 100.441 218.516 100.441 218.193C100.441 217.871 100.473 217.612 100.537 217.419H117.29C117.29 217.612 117.258 217.871 117.193 218.193C117.193 218.452 117.193 218.678 117.193 218.871C117.193 220.937 117.71 222.616 118.742 223.907C119.84 225.133 121.357 226.037 123.294 226.618C125.23 227.135 127.49 227.393 130.072 227.393C131.492 227.393 132.816 227.328 134.042 227.199C135.269 227.07 136.367 226.844 137.335 226.521C138.303 226.198 139.142 225.811 139.853 225.359C140.627 224.843 141.176 224.262 141.499 223.616C141.886 222.906 142.08 222.099 142.08 221.195C142.08 219.71 141.499 218.484 140.337 217.516C139.239 216.547 137.722 215.74 135.786 215.095C133.913 214.449 131.783 213.836 129.394 213.255C127.006 212.674 124.52 212.06 121.938 211.415C119.356 210.769 116.87 209.962 114.482 208.994C112.093 208.026 109.93 206.799 107.994 205.314C106.122 203.829 104.604 201.99 103.442 199.795C102.345 197.535 101.796 194.824 101.796 191.66C101.796 188.174 102.539 185.172 104.023 182.655C105.508 180.072 107.542 177.974 110.124 176.36C112.771 174.746 115.805 173.584 119.227 172.874C122.648 172.1 126.296 171.712 130.169 171.712C133.978 171.712 137.529 172.1 140.821 172.874C144.178 173.649 147.148 174.876 149.73 176.554C152.312 178.168 154.313 180.234 155.734 182.752C157.218 185.205 157.993 188.174 158.058 191.66V192.822H141.402V192.145C141.402 190.66 140.982 189.369 140.143 188.271C139.368 187.109 138.174 186.205 136.56 185.56C134.946 184.85 132.945 184.495 130.556 184.495C128.168 184.495 126.134 184.721 124.456 185.172C122.842 185.624 121.583 186.27 120.679 187.109C119.84 187.948 119.42 188.949 119.42 190.111C119.42 191.531 119.969 192.693 121.066 193.597C122.229 194.501 123.778 195.276 125.715 195.921C127.651 196.567 129.814 197.18 132.203 197.761C134.591 198.278 137.044 198.859 139.562 199.504C142.144 200.085 144.63 200.86 147.018 201.828C149.407 202.732 151.57 203.926 153.506 205.411C155.443 206.831 156.96 208.607 158.058 210.737C159.22 212.867 159.801 215.45 159.801 218.484C159.801 223.778 158.542 228.038 156.024 231.266C153.571 234.494 150.149 236.85 145.76 238.335C141.434 239.82 136.528 240.562 131.041 240.562ZM170.963 239.4V172.874H209.6C214.506 172.874 218.606 173.81 221.898 175.683C225.19 177.49 227.644 180.008 229.258 183.236C230.936 186.399 231.775 189.95 231.775 193.888C231.775 198.148 230.775 201.957 228.773 205.314C226.837 208.607 224.093 211.189 220.542 213.061L233.906 239.4H214.539L203.499 215.966H188.296V239.4H170.963ZM188.296 203.087H206.211C208.599 203.087 210.504 202.312 211.924 200.763C213.409 199.149 214.151 197.019 214.151 194.372C214.151 192.629 213.828 191.144 213.183 189.917C212.537 188.691 211.633 187.755 210.471 187.109C209.309 186.399 207.889 186.044 206.211 186.044H188.296V203.087ZM258.921 239.4V187.109H237.327V172.874H297.849V187.109H276.255V239.4H258.921Z" fill="black"/>
</svg>
